G04 MADE WITH FRITZING*
G04 WWW.FRITZING.ORG*
G04 DOUBLE SIDED*
G04 HOLES PLATED*
G04 CONTOUR ON CENTER OF CONTOUR VECTOR*
%ASAXBY*%
%FSLAX23Y23*%
%MOIN*%
%OFA0B0*%
%SFA1.0B1.0*%
%ADD10C,0.080000*%
%ADD11C,0.090000*%
%ADD12C,0.085000*%
%ADD13C,0.072000*%
%ADD14C,0.085433*%
%ADD15R,0.079972X0.080000*%
%ADD16R,0.090000X0.090000*%
%ADD17R,0.085000X0.085000*%
%ADD18R,0.072000X0.071986*%
%LNMASK0*%
G90*
G70*
G54D10*
X1353Y1556D03*
X1353Y1456D03*
X1353Y1356D03*
X1353Y1256D03*
X1353Y1156D03*
X1353Y1056D03*
X1353Y956D03*
X1353Y856D03*
X1353Y756D03*
X1353Y656D03*
X1353Y556D03*
X1353Y456D03*
X1353Y356D03*
X1353Y256D03*
X1353Y156D03*
X1953Y1556D03*
X1953Y1456D03*
X1953Y1356D03*
X1953Y1256D03*
X1953Y1156D03*
X1953Y1056D03*
X1953Y956D03*
X1953Y856D03*
X1953Y756D03*
X1953Y656D03*
X1953Y556D03*
X1953Y456D03*
X1953Y356D03*
X1953Y256D03*
X1953Y156D03*
G54D11*
X2853Y870D03*
X2853Y732D03*
X2853Y594D03*
G54D12*
X2553Y1956D03*
X2253Y1956D03*
X2553Y2056D03*
X2253Y2056D03*
X2553Y2156D03*
X2253Y2156D03*
X2553Y2256D03*
X2253Y2256D03*
X2553Y2356D03*
X2253Y2356D03*
X2553Y2456D03*
X2253Y2456D03*
X2553Y2556D03*
X2253Y2556D03*
X2553Y2656D03*
X2253Y2656D03*
G54D11*
X2853Y2470D03*
X2853Y2332D03*
X2853Y2194D03*
X2853Y2056D03*
G54D13*
X153Y956D03*
X153Y856D03*
X153Y756D03*
X153Y656D03*
X753Y1556D03*
X753Y1456D03*
X753Y1356D03*
X753Y357D03*
X753Y257D03*
X153Y1556D03*
X153Y1456D03*
X153Y1356D03*
X153Y1256D03*
X153Y1156D03*
G54D11*
X1091Y256D03*
X953Y256D03*
X2853Y1670D03*
X2853Y1532D03*
X2853Y1394D03*
X2853Y1256D03*
X2666Y294D03*
X2528Y294D03*
X2391Y294D03*
X2253Y294D03*
X1215Y2556D03*
X1353Y2556D03*
X1491Y2556D03*
X1628Y2556D03*
X415Y2556D03*
X553Y2556D03*
X691Y2556D03*
G54D12*
X353Y2156D03*
X753Y2156D03*
X453Y2256D03*
X853Y2256D03*
X1353Y2256D03*
X1753Y2256D03*
X1453Y2156D03*
X1853Y2156D03*
X1553Y2056D03*
X1953Y2056D03*
G54D14*
X1524Y1097D03*
X1788Y1097D03*
X1740Y905D03*
X2676Y2105D03*
X2724Y1097D03*
X2364Y1025D03*
X252Y1193D03*
G54D15*
X1353Y1556D03*
G54D16*
X2853Y870D03*
G54D17*
X2553Y1956D03*
G54D16*
X2853Y2470D03*
G54D18*
X153Y656D03*
X753Y1556D03*
X753Y257D03*
X153Y1556D03*
G54D16*
X1091Y256D03*
X2853Y1670D03*
X2666Y294D03*
X1215Y2556D03*
X415Y2556D03*
G04 End of Mask0*
M02*