; NON-PLATED HOLES START AT T1
; THROUGH (PLATED) HOLES START AT T100
M48
INCH
T100C0.035000
T101C0.036000
T102C0.035433
T103C0.040000
%
T100
X022528Y021564
X003528Y021564
X025528Y020564
X022528Y024564
X025528Y022564
X022528Y019564
X025528Y021564
X019528Y020564
X025528Y024564
X025528Y026564
X017528Y022564
X015528Y020564
X025528Y023564
X022528Y023564
X022528Y022564
X008528Y022564
X022528Y020564
X013528Y022564
X018528Y021564
X007528Y021564
X004528Y022564
X025528Y019564
X025528Y025564
X022528Y026564
X014528Y021564
X022528Y025564
T101
X013528Y005564
X013528Y006564
X001528Y007564
X013528Y009564
X007527Y013564
X013528Y001564
X001528Y011564
X019528Y012564
X013528Y007564
X019528Y005564
X019528Y011564
X001528Y009564
X019528Y006564
X013528Y002564
X007527Y015564
X013528Y008564
X019528Y013564
X013528Y003564
X019528Y014564
X019528Y002564
X019528Y015564
X013528Y010564
X013528Y012564
X019528Y004564
X019528Y008564
X013528Y013564
X001528Y015564
X001528Y008564
X019528Y010564
X007527Y003565
X019528Y001564
X013528Y004564
X007527Y002565
X019528Y009564
X001528Y013564
X013528Y014564
X019528Y007564
X013528Y015564
X001528Y006564
X013528Y011564
X007527Y014564
X019528Y003564
X001528Y012564
X001528Y014564
T102
X026760Y021046
X017880Y010966
X027240Y010966
X017400Y009046
X002520Y011926
X015240Y010966
X023640Y010246
T103
X012150Y025564
X026661Y002942
X025284Y002942
X028528Y005942
X016284Y025564
X023906Y002942
X005528Y025564
X014906Y025564
X028528Y021942
X009528Y002564
X010906Y002564
X028528Y013942
X028528Y024698
X028528Y023320
X028528Y015320
X028528Y012564
X028528Y016698
X028528Y007320
X006906Y025564
X028528Y008698
X013528Y025564
X028528Y020564
X004150Y025564
X022528Y002942
T00
M30
