G04 MADE WITH FRITZING*
G04 WWW.FRITZING.ORG*
G04 DOUBLE SIDED*
G04 HOLES PLATED*
G04 CONTOUR ON CENTER OF CONTOUR VECTOR*
%ASAXBY*%
%FSLAX23Y23*%
%MOIN*%
%OFA0B0*%
%SFA1.0B1.0*%
%ADD10C,0.070000*%
%ADD11C,0.080000*%
%ADD12C,0.075000*%
%ADD13C,0.075433*%
%ADD14R,0.069972X0.070000*%
%ADD15R,0.080000X0.080000*%
%ADD16R,0.075000X0.075000*%
%ADD17C,0.024000*%
%LNCOPPER1*%
G90*
G70*
G54D10*
X1353Y1556D03*
X1353Y1456D03*
X1353Y1356D03*
X1353Y1256D03*
X1353Y1156D03*
X1353Y1056D03*
X1353Y956D03*
X1353Y856D03*
X1353Y756D03*
X1353Y656D03*
X1353Y556D03*
X1353Y456D03*
X1353Y356D03*
X1353Y256D03*
X1353Y156D03*
X1953Y1556D03*
X1953Y1456D03*
X1953Y1356D03*
X1953Y1256D03*
X1953Y1156D03*
X1953Y1056D03*
X1953Y956D03*
X1953Y856D03*
X1953Y756D03*
X1953Y656D03*
X1953Y556D03*
X1953Y456D03*
X1953Y356D03*
X1953Y256D03*
X1953Y156D03*
G54D11*
X2853Y870D03*
X2853Y732D03*
X2853Y594D03*
G54D12*
X2553Y1956D03*
X2253Y1956D03*
X2553Y2056D03*
X2253Y2056D03*
X2553Y2156D03*
X2253Y2156D03*
X2553Y2256D03*
X2253Y2256D03*
X2553Y2356D03*
X2253Y2356D03*
X2553Y2456D03*
X2253Y2456D03*
X2553Y2556D03*
X2253Y2556D03*
X2553Y2656D03*
X2253Y2656D03*
G54D11*
X2853Y2470D03*
X2853Y2332D03*
X2853Y2194D03*
X2853Y2056D03*
X1091Y256D03*
X953Y256D03*
X2853Y1670D03*
X2853Y1532D03*
X2853Y1394D03*
X2853Y1256D03*
X2666Y294D03*
X2528Y294D03*
X2391Y294D03*
X2253Y294D03*
X1215Y2556D03*
X1353Y2556D03*
X1491Y2556D03*
X1628Y2556D03*
X415Y2556D03*
X553Y2556D03*
X691Y2556D03*
G54D12*
X353Y2156D03*
X753Y2156D03*
X453Y2256D03*
X853Y2256D03*
X1353Y2256D03*
X1753Y2256D03*
X1453Y2156D03*
X1853Y2156D03*
X1553Y2056D03*
X1953Y2056D03*
G54D13*
X1740Y905D03*
X1788Y1097D03*
X252Y1193D03*
X2364Y1025D03*
X2724Y1097D03*
X2676Y2105D03*
X1524Y1097D03*
G54D14*
X1353Y1556D03*
G54D15*
X2853Y870D03*
G54D16*
X2553Y1956D03*
G54D15*
X2853Y2470D03*
X1091Y256D03*
X2853Y1670D03*
X2666Y294D03*
X1215Y2556D03*
X415Y2556D03*
G54D17*
X2824Y2344D02*
X2579Y2445D01*
D02*
X2877Y2450D02*
X2916Y2417D01*
X2916Y2417D02*
X2916Y2273D01*
X2916Y2273D02*
X2628Y2273D01*
X2628Y2273D02*
X2628Y2225D01*
X2628Y2225D02*
X2574Y2176D01*
D02*
X2830Y753D02*
X1974Y1537D01*
D02*
X1446Y2184D02*
X1360Y2526D01*
D02*
X1377Y272D02*
X1428Y305D01*
X1428Y305D02*
X1452Y2128D01*
D02*
X1341Y2282D02*
X1228Y2528D01*
D02*
X1375Y175D02*
X1524Y305D01*
X1524Y305D02*
X1524Y1068D01*
D02*
X1549Y2085D02*
X1494Y2526D01*
D02*
X1326Y346D02*
X1284Y329D01*
X1284Y329D02*
X1284Y113D01*
X1284Y113D02*
X1308Y89D01*
X1308Y89D02*
X1476Y89D01*
X1476Y89D02*
X1572Y233D01*
X1572Y233D02*
X1596Y1169D01*
X1596Y1169D02*
X1554Y2028D01*
D02*
X543Y2527D02*
X462Y2284D01*
D02*
X1330Y838D02*
X1236Y761D01*
X1236Y761D02*
X1236Y65D01*
X1236Y65D02*
X1260Y41D01*
X1260Y41D02*
X1596Y41D01*
X1596Y41D02*
X1644Y65D01*
X1644Y65D02*
X1644Y1145D01*
X1644Y1145D02*
X1908Y1625D01*
X1908Y1625D02*
X2820Y1529D01*
X2820Y1529D02*
X2822Y1529D01*
D02*
X1973Y177D02*
X2436Y641D01*
X2436Y641D02*
X2916Y665D01*
X2916Y665D02*
X2916Y1601D01*
X2916Y1601D02*
X2484Y1601D01*
X2484Y1601D02*
X2484Y2033D01*
X2484Y2033D02*
X2526Y2047D01*
D02*
X1781Y1069D02*
X1747Y933D01*
D02*
X1833Y2177D02*
X1773Y2236D01*
D02*
X2232Y2237D02*
X2220Y2225D01*
X2220Y2225D02*
X1977Y2072D01*
D02*
X2825Y2180D02*
X2702Y2118D01*
D02*
X2841Y1699D02*
X2687Y2078D01*
D02*
X773Y2177D02*
X833Y2236D01*
D02*
X2683Y321D02*
X2836Y568D01*
D02*
X2742Y1119D02*
X2833Y1232D01*
D02*
X1978Y1242D02*
X2339Y1039D01*
D02*
X1647Y2532D02*
X1932Y2153D01*
X1932Y2153D02*
X1884Y2105D01*
X1884Y2105D02*
X1884Y1985D01*
X1884Y1985D02*
X2224Y1959D01*
D02*
X721Y2562D02*
X1140Y2633D01*
X1140Y2633D02*
X1548Y2633D01*
X1548Y2633D02*
X1606Y2578D01*
D02*
X261Y1220D02*
X681Y2527D01*
G04 End of Copper1*
M02*