G04 MADE WITH FRITZING*
G04 WWW.FRITZING.ORG*
G04 DOUBLE SIDED*
G04 HOLES PLATED*
G04 CONTOUR ON CENTER OF CONTOUR VECTOR*
%ASAXBY*%
%FSLAX23Y23*%
%MOIN*%
%OFA0B0*%
%SFA1.0B1.0*%
%ADD10C,0.070000*%
%ADD11C,0.080000*%
%ADD12C,0.075000*%
%ADD13C,0.062000*%
%ADD14C,0.075433*%
%ADD15R,0.069972X0.070000*%
%ADD16R,0.080000X0.080000*%
%ADD17R,0.075000X0.075000*%
%ADD18R,0.062000X0.061986*%
%ADD19C,0.024000*%
%LNCOPPER0*%
G90*
G70*
G54D10*
X1353Y1556D03*
X1353Y1456D03*
X1353Y1356D03*
X1353Y1256D03*
X1353Y1156D03*
X1353Y1056D03*
X1353Y956D03*
X1353Y856D03*
X1353Y756D03*
X1353Y656D03*
X1353Y556D03*
X1353Y456D03*
X1353Y356D03*
X1353Y256D03*
X1353Y156D03*
X1953Y1556D03*
X1953Y1456D03*
X1953Y1356D03*
X1953Y1256D03*
X1953Y1156D03*
X1953Y1056D03*
X1953Y956D03*
X1953Y856D03*
X1953Y756D03*
X1953Y656D03*
X1953Y556D03*
X1953Y456D03*
X1953Y356D03*
X1953Y256D03*
X1953Y156D03*
G54D11*
X2853Y870D03*
X2853Y732D03*
X2853Y594D03*
G54D12*
X2553Y1956D03*
X2253Y1956D03*
X2553Y2056D03*
X2253Y2056D03*
X2553Y2156D03*
X2253Y2156D03*
X2553Y2256D03*
X2253Y2256D03*
X2553Y2356D03*
X2253Y2356D03*
X2553Y2456D03*
X2253Y2456D03*
X2553Y2556D03*
X2253Y2556D03*
X2553Y2656D03*
X2253Y2656D03*
G54D11*
X2853Y2470D03*
X2853Y2332D03*
X2853Y2194D03*
X2853Y2056D03*
G54D13*
X153Y956D03*
X153Y856D03*
X153Y756D03*
X153Y656D03*
X753Y1556D03*
X753Y1456D03*
X753Y1356D03*
X753Y357D03*
X753Y257D03*
X153Y1556D03*
X153Y1456D03*
X153Y1356D03*
X153Y1256D03*
X153Y1156D03*
G54D11*
X1091Y256D03*
X953Y256D03*
X2853Y1670D03*
X2853Y1532D03*
X2853Y1394D03*
X2853Y1256D03*
X2666Y294D03*
X2528Y294D03*
X2391Y294D03*
X2253Y294D03*
X1215Y2556D03*
X1353Y2556D03*
X1491Y2556D03*
X1628Y2556D03*
X415Y2556D03*
X553Y2556D03*
X691Y2556D03*
G54D12*
X353Y2156D03*
X753Y2156D03*
X453Y2256D03*
X853Y2256D03*
X1353Y2256D03*
X1753Y2256D03*
X1453Y2156D03*
X1853Y2156D03*
X1553Y2056D03*
X1953Y2056D03*
G54D14*
X1524Y1097D03*
X1788Y1097D03*
X1740Y905D03*
X2676Y2105D03*
X2724Y1097D03*
X2364Y1025D03*
X252Y1193D03*
G54D15*
X1353Y1556D03*
G54D16*
X2853Y870D03*
G54D17*
X2553Y1956D03*
G54D16*
X2853Y2470D03*
G54D18*
X153Y656D03*
X753Y1556D03*
X753Y257D03*
X153Y1556D03*
G54D16*
X1091Y256D03*
X2853Y1670D03*
X2666Y294D03*
X1215Y2556D03*
X415Y2556D03*
G54D19*
X779Y344D02*
X925Y270D01*
D02*
X753Y227D02*
X752Y154D01*
D02*
X752Y154D02*
X1054Y154D01*
D02*
X1054Y154D02*
X1080Y227D01*
D02*
X1971Y833D02*
X2371Y319D01*
D02*
X2508Y318D02*
X1972Y934D01*
D02*
X2834Y2081D02*
X2796Y2129D01*
X2796Y2129D02*
X2628Y2633D01*
X2628Y2633D02*
X2580Y2648D01*
D02*
X2823Y1402D02*
X2004Y1625D01*
X2004Y1625D02*
X1884Y1625D01*
X1884Y1625D02*
X1884Y1001D01*
X1884Y1001D02*
X1382Y959D01*
D02*
X1325Y1166D02*
X780Y1347D01*
D02*
X1520Y1125D02*
X1357Y2228D01*
D02*
X1332Y777D02*
X972Y1133D01*
X972Y1133D02*
X684Y1289D01*
X684Y1289D02*
X684Y1433D01*
X684Y1433D02*
X461Y2229D01*
D02*
X373Y2177D02*
X396Y2201D01*
X396Y2201D02*
X396Y2513D01*
X396Y2513D02*
X403Y2528D01*
D02*
X1330Y674D02*
X636Y1217D01*
X636Y1217D02*
X361Y2129D01*
D02*
X2529Y2572D02*
X2292Y2729D01*
X2292Y2729D02*
X2196Y2729D01*
X2196Y2729D02*
X2196Y2201D01*
X2196Y2201D02*
X1788Y1817D01*
X1788Y1817D02*
X1788Y1125D01*
D02*
X1719Y885D02*
X1374Y576D01*
D02*
X1933Y2077D02*
X1873Y2136D01*
D02*
X2658Y2127D02*
X2571Y2234D01*
D02*
X1974Y1436D02*
X2028Y1385D01*
X2028Y1385D02*
X2028Y1193D01*
X2028Y1193D02*
X2916Y1193D01*
X2916Y1193D02*
X2916Y1601D01*
X2916Y1601D02*
X2868Y1625D01*
X2868Y1625D02*
X2863Y1640D01*
D02*
X881Y2260D02*
X1308Y2321D01*
X1308Y2321D02*
X1724Y2261D01*
D02*
X2826Y610D02*
X2772Y641D01*
X2772Y641D02*
X2772Y929D01*
X2772Y929D02*
X2916Y1193D01*
D02*
X177Y1272D02*
X204Y1289D01*
X204Y1289D02*
X253Y2655D01*
D02*
X253Y2655D02*
X492Y2633D01*
X492Y2633D02*
X492Y2393D01*
X492Y2393D02*
X732Y2176D01*
D02*
X2884Y865D02*
X2954Y855D01*
D02*
X2954Y855D02*
X2954Y457D01*
D02*
X2954Y457D02*
X2551Y557D01*
D02*
X2551Y557D02*
X2715Y1069D01*
D02*
X2278Y276D02*
X2340Y233D01*
X2340Y233D02*
X2604Y233D01*
X2604Y233D02*
X2551Y557D01*
D02*
X2392Y1030D02*
X2696Y1091D01*
D02*
X2280Y1948D02*
X2916Y1745D01*
X2916Y1745D02*
X2964Y1649D01*
X2964Y1649D02*
X2964Y1121D01*
X2964Y1121D02*
X2865Y898D01*
D02*
X180Y1166D02*
X225Y1183D01*
G04 End of Copper0*
M02*